<svg width="888" height="570" viewBox="0 0 888 570" fill="none" xmlns="http://www.w3.org/2000/svg">
<g clip-path="url(#clip0)">
<path d="M887.873 0.346619H276.411V391.954H887.873V0.346619Z" fill="#E6E6E6"/>
<path d="M872.492 50H296V369.322H872.492V50Z" fill="white"/>
<path d="M887.612 0H276.15V25.9771H887.612V0Z" fill="#212121"/>
<path d="M295.454 18.0956C298.113 18.0956 300.269 15.94 300.269 13.2809C300.269 10.6218 298.113 8.46625 295.454 8.46625C292.795 8.46625 290.64 10.6218 290.64 13.2809C290.64 15.94 292.795 18.0956 295.454 18.0956Z" fill="#FF3131"/>
<path d="M313.73 18.0956C316.389 18.0956 318.544 15.94 318.544 13.2809C318.544 10.6218 316.389 8.46625 313.73 8.46625C311.071 8.46625 308.915 10.6218 308.915 13.2809C308.915 15.94 311.071 18.0956 313.73 18.0956Z" fill="#FFD600"/>
<path d="M558.815 215.629C561.474 215.629 563.629 213.474 563.629 210.815C563.629 208.156 561.474 206 558.815 206C556.156 206 554 208.156 554 210.815C554 213.474 556.156 215.629 558.815 215.629Z" fill="#FF3131"/>
<path d="M581.815 215.629C584.474 215.629 586.629 213.474 586.629 210.815C586.629 208.156 584.474 206 581.815 206C579.156 206 577 208.156 577 210.815C577 213.474 579.156 215.629 581.815 215.629Z" fill="#FF3131"/>
<path d="M605.815 215.629C608.474 215.629 610.629 213.474 610.629 210.815C610.629 208.156 608.474 206 605.815 206C603.156 206 601 208.156 601 210.815C601 213.474 603.156 215.629 605.815 215.629Z" fill="#FF3131"/>
<path d="M332.005 18.0956C334.664 18.0956 336.82 15.94 336.82 13.2809C336.82 10.6218 334.664 8.46625 332.005 8.46625C329.346 8.46625 327.19 10.6218 327.19 13.2809C327.19 15.94 329.346 18.0956 332.005 18.0956Z" fill="#00FF0A"/>
<path d="M707.267 79.3726H519.58C519.179 79.3198 518.811 79.1232 518.545 78.8194C518.278 78.5155 518.131 78.1252 518.131 77.721C518.131 77.3169 518.278 76.9266 518.545 76.6227C518.811 76.3189 519.179 76.1223 519.58 76.0695H707.267C707.667 76.1223 708.035 76.3189 708.302 76.6227C708.568 76.9266 708.715 77.3169 708.715 77.721C708.715 78.1252 708.568 78.5155 708.302 78.8194C708.035 79.1232 707.667 79.3198 707.267 79.3726V79.3726Z" fill="#CCCCCC"/>
<path d="M577.218 97.5401H457.886C457.486 97.4873 457.118 97.2906 456.851 96.9868C456.585 96.6829 456.438 96.2926 456.438 95.8885C456.438 95.4843 456.585 95.094 456.851 94.7902C457.118 94.4863 457.486 94.2897 457.886 94.2369H577.218C577.619 94.2897 577.987 94.4863 578.253 94.7902C578.52 95.094 578.666 95.4843 578.666 95.8885C578.666 96.2926 578.52 96.6829 578.253 96.9868C577.987 97.2906 577.619 97.4873 577.218 97.5401V97.5401Z" fill="#CCCCCC"/>
<path d="M707.267 97.8704H587.935C587.534 97.8176 587.166 97.6209 586.9 97.317C586.634 97.0132 586.487 96.6229 586.487 96.2188C586.487 95.8147 586.634 95.4243 586.9 95.1205C587.166 94.8166 587.534 94.62 587.935 94.5672H707.267C707.668 94.62 708.035 94.8166 708.302 95.1205C708.568 95.4243 708.715 95.8147 708.715 96.2188C708.715 96.6229 708.568 97.0132 708.302 97.317C708.035 97.6209 707.668 97.8176 707.267 97.8704H707.267Z" fill="#CCCCCC"/>
<path d="M577.508 115.708H458.176C457.775 115.655 457.408 115.458 457.141 115.154C456.875 114.85 456.728 114.46 456.728 114.056C456.728 113.652 456.875 113.261 457.141 112.958C457.408 112.654 457.775 112.457 458.176 112.404H577.508C577.908 112.457 578.276 112.654 578.543 112.958C578.809 113.261 578.956 113.652 578.956 114.056C578.956 114.46 578.809 114.85 578.543 115.154C578.276 115.458 577.908 115.655 577.508 115.708V115.708Z" fill="#CCCCCC"/>
<path d="M577.798 133.875H458.466C458.065 133.822 457.697 133.626 457.431 133.322C457.164 133.018 457.017 132.627 457.017 132.223C457.017 131.819 457.164 131.429 457.431 131.125C457.697 130.821 458.065 130.625 458.466 130.572H577.798C578.198 130.625 578.566 130.821 578.832 131.125C579.099 131.429 579.246 131.819 579.246 132.223C579.246 132.627 579.099 133.018 578.832 133.322C578.566 133.626 578.198 133.822 577.798 133.875V133.875Z" fill="#CCCCCC"/>
<path d="M631.96 115.708H597.783C597.382 115.655 597.014 115.458 596.748 115.154C596.481 114.85 596.335 114.46 596.335 114.056C596.335 113.652 596.481 113.261 596.748 112.958C597.014 112.654 597.382 112.457 597.783 112.404H631.96C632.361 112.457 632.729 112.654 632.995 112.958C633.262 113.261 633.408 113.652 633.408 114.056C633.408 114.46 633.262 114.85 632.995 115.154C632.729 115.458 632.361 115.655 631.96 115.708V115.708Z" fill="#CCCCCC"/>
<path d="M631.96 133.545H597.783C597.382 133.492 597.014 133.295 596.748 132.991C596.481 132.687 596.335 132.297 596.335 131.893C596.335 131.489 596.481 131.099 596.748 130.795C597.014 130.491 597.382 130.294 597.783 130.241H631.96C632.361 130.294 632.729 130.491 632.995 130.795C633.262 131.099 633.408 131.489 633.408 131.893C633.408 132.297 633.262 132.687 632.995 132.991C632.729 133.295 632.361 133.492 631.96 133.545V133.545Z" fill="#CCCCCC"/>
<path d="M689.309 133.545H655.132C654.731 133.492 654.363 133.295 654.097 132.991C653.83 132.687 653.683 132.297 653.683 131.893C653.683 131.489 653.83 131.099 654.097 130.795C654.363 130.491 654.731 130.294 655.132 130.241H689.309C689.71 130.294 690.078 130.491 690.344 130.795C690.61 131.099 690.757 131.489 690.757 131.893C690.757 132.297 690.61 132.687 690.344 132.991C690.078 133.295 689.71 133.492 689.309 133.545V133.545Z" fill="#CCCCCC"/>
<path d="M491.195 79.3726H457.017C456.617 79.3198 456.249 79.1232 455.982 78.8194C455.716 78.5155 455.569 78.1252 455.569 77.721C455.569 77.3169 455.716 76.9266 455.982 76.6227C456.249 76.3189 456.617 76.1223 457.017 76.0695H491.195C491.596 76.1223 491.963 76.3189 492.23 76.6227C492.496 76.9266 492.643 77.3169 492.643 77.721C492.643 78.1252 492.496 78.5155 492.23 78.8194C491.963 79.1232 491.596 79.3198 491.195 79.3726Z" fill="#CCCCCC"/>
<path d="M576.784 287.678H457.452C457.051 287.626 456.683 287.429 456.417 287.125C456.151 286.821 456.004 286.431 456.004 286.027C456.004 285.623 456.151 285.232 456.417 284.928C456.683 284.625 457.051 284.428 457.452 284.375H576.784C577.184 284.428 577.552 284.625 577.819 284.928C578.085 285.232 578.232 285.623 578.232 286.027C578.232 286.431 578.085 286.821 577.819 287.125C577.552 287.429 577.184 287.626 576.784 287.678H576.784Z" fill="#CCCCCC"/>
<path d="M576.204 324.013H456.873C456.472 323.961 456.104 323.764 455.838 323.46C455.571 323.156 455.424 322.766 455.424 322.362C455.424 321.958 455.571 321.567 455.838 321.263C456.104 320.96 456.472 320.763 456.873 320.71H576.205C576.605 320.763 576.973 320.96 577.239 321.263C577.506 321.567 577.653 321.958 577.653 322.362C577.653 322.766 577.506 323.156 577.239 323.46C576.973 323.764 576.605 323.961 576.205 324.013H576.204Z" fill="#CCCCCC"/>
<path d="M576.494 342.181H457.162C456.762 342.128 456.394 341.931 456.127 341.627C455.861 341.324 455.714 340.933 455.714 340.529C455.714 340.125 455.861 339.735 456.127 339.431C456.394 339.127 456.762 338.93 457.162 338.878H576.494C576.895 338.93 577.263 339.127 577.529 339.431C577.796 339.735 577.942 340.125 577.942 340.529C577.942 340.933 577.796 341.324 577.529 341.627C577.263 341.931 576.895 342.128 576.494 342.181H576.494Z" fill="#CCCCCC"/>
<path d="M627.471 324.344H593.293C592.893 324.291 592.525 324.094 592.258 323.79C591.992 323.486 591.845 323.096 591.845 322.692C591.845 322.288 591.992 321.898 592.258 321.594C592.525 321.29 592.893 321.093 593.293 321.04H627.471C627.871 321.093 628.239 321.29 628.506 321.594C628.772 321.898 628.919 322.288 628.919 322.692C628.919 323.096 628.772 323.486 628.506 323.79C628.239 324.094 627.871 324.291 627.471 324.344V324.344Z" fill="#CCCCCC"/>
<path d="M627.471 342.181H593.293C592.893 342.128 592.525 341.931 592.258 341.627C591.992 341.324 591.845 340.933 591.845 340.529C591.845 340.125 591.992 339.735 592.258 339.431C592.525 339.127 592.893 338.93 593.293 338.878H627.471C627.871 338.93 628.239 339.127 628.506 339.431C628.772 339.735 628.919 340.125 628.919 340.529C628.919 340.933 628.772 341.324 628.506 341.627C628.239 341.931 627.871 342.128 627.471 342.181V342.181Z" fill="#CCCCCC"/>
<path d="M684.82 324.344H650.642C650.241 324.291 649.874 324.094 649.607 323.79C649.341 323.486 649.194 323.096 649.194 322.692C649.194 322.288 649.341 321.898 649.607 321.594C649.874 321.29 650.241 321.093 650.642 321.04H684.82C685.22 321.093 685.588 321.29 685.855 321.594C686.121 321.898 686.268 322.288 686.268 322.692C686.268 323.096 686.121 323.486 685.855 323.79C685.588 324.094 685.22 324.291 684.82 324.344V324.344Z" fill="#CCCCCC"/>
<path d="M707.412 305.846H519.725C519.324 305.793 518.956 305.596 518.69 305.293C518.423 304.989 518.276 304.598 518.276 304.194C518.276 303.79 518.423 303.4 518.69 303.096C518.956 302.792 519.324 302.595 519.725 302.543H707.412C707.812 302.595 708.18 302.792 708.447 303.096C708.713 303.4 708.86 303.79 708.86 304.194C708.86 304.598 708.713 304.989 708.447 305.293C708.18 305.596 707.812 305.793 707.412 305.846V305.846Z" fill="#CCCCCC"/>
<path d="M491.34 305.846H457.162C456.762 305.793 456.394 305.596 456.127 305.293C455.861 304.989 455.714 304.598 455.714 304.194C455.714 303.79 455.861 303.4 456.127 303.096C456.394 302.792 456.762 302.595 457.162 302.543H491.34C491.74 302.595 492.108 302.792 492.375 303.096C492.641 303.4 492.788 303.79 492.788 304.194C492.788 304.598 492.641 304.989 492.375 305.293C492.108 305.596 491.74 305.793 491.34 305.846V305.846Z" fill="#CCCCCC"/>
<path d="M547.965 163.221L501.622 208.985L547.965 254.748L558.392 244.321L523.345 209.274L558.681 173.938L547.965 163.221Z" fill="#E6E6E6"/>
<path d="M616.32 163.221L662.662 208.985L616.32 254.748L605.893 244.321L640.939 209.274L605.603 173.938L616.32 163.221Z" fill="#E6E6E6"/>
<path d="M547.965 163.221L501.622 208.985L547.965 254.748L558.392 244.321L523.345 209.274L558.681 173.938L547.965 163.221Z" fill="#212121"/>
<path d="M616.32 163.221L662.662 208.985L616.32 254.748L605.893 244.321L640.939 209.274L605.603 173.938L616.32 163.221Z" fill="#212121"/>
<path d="M242.825 435.077V485.203H228.503L218.956 432.69L242.825 435.077Z" fill="#FFB9B9"/>
<path d="M129.445 435.077V485.203H115.124L105.576 432.69L129.445 435.077Z" fill="#FFB9B9"/>
<path d="M204.998 65.5655C204.998 65.5655 181.984 49.0241 179.107 56.9352C176.23 64.8463 196.367 79.23 196.367 79.23L204.998 65.5655Z" fill="#FFB9B9"/>
<path d="M123.37 86.7815C123.37 115.38 135.683 116.268 155.741 116.268C175.8 116.268 196.008 115.38 196.008 86.7815C196.008 58.1834 179.747 35 159.689 35C139.63 35 123.37 58.1834 123.37 86.7815Z" fill="#2F2E41"/>
<path d="M172.634 86.4219C172.634 86.4219 169.757 107.998 183.422 109.436C197.087 110.874 138.832 115.189 138.832 115.189C138.832 115.189 153.935 101.525 146.024 90.737C138.113 79.9492 172.634 86.4219 172.634 86.4219Z" fill="#FFB9B9"/>
<path d="M245.272 471.907L250.307 514.339C250.307 514.339 275.478 545.264 259.656 543.106C243.834 540.949 233.765 543.565 233.765 540.688C233.765 537.811 233.393 527.533 231.236 527.533C229.078 527.533 227.293 543.763 227.293 543.763C227.293 543.763 220.82 543.274 220.101 542.554C219.381 541.835 218.662 500.674 218.662 500.674C218.662 500.674 216.505 488.448 220.82 482.694C225.135 476.941 224.416 471.907 224.416 471.907L245.272 471.907Z" fill="#2F2E41"/>
<path d="M130.699 471.44L135.733 513.872C135.733 513.872 160.905 544.797 145.083 542.64C129.261 540.482 119.192 543.098 119.192 540.222C119.192 537.345 118.82 527.067 116.662 527.067C114.505 527.067 112.719 543.297 112.719 543.297C112.719 543.297 106.247 542.807 105.527 542.088C104.808 541.369 104.089 500.208 104.089 500.208C104.089 500.208 101.931 487.981 106.247 482.228C110.562 476.474 109.843 471.44 109.843 471.44H130.699Z" fill="#2F2E41"/>
<path d="M207.874 219.472C207.874 219.472 230.888 284.918 232.327 299.302C233.765 313.685 230.888 362.59 230.888 362.59C230.888 362.59 251.745 447.089 247.43 447.808C243.115 448.527 219.084 451.937 218.365 448.341C217.646 444.745 215.082 439.178 215.801 437.02C216.52 434.862 213.643 426.951 213.643 422.636C213.643 418.321 203.559 395.673 204.278 392.077C204.998 388.481 192.052 335.261 189.895 330.946C187.737 326.631 181.984 296.425 181.984 296.425C181.984 296.425 149.62 384.885 148.901 387.042C148.182 389.2 145.305 392.796 146.743 393.515C148.182 394.234 144.586 399.269 144.586 399.269C144.586 399.269 137.133 429.109 137.133 430.547C137.133 431.986 138.572 448.267 135.695 448.986C132.818 449.705 103.434 449.659 101.995 444.625C100.557 439.591 117.257 381.289 117.257 381.289C117.257 381.289 129.483 344.61 125.887 335.261C122.291 325.912 129.483 269.815 132.36 265.5C135.236 261.185 135.956 235.294 135.956 235.294L207.874 219.472Z" fill="#212121"/>
<path d="M160.048 98.2885C172.759 98.2885 183.062 87.9848 183.062 75.2745C183.062 62.5642 172.759 52.2605 160.048 52.2605C147.338 52.2605 137.034 62.5642 137.034 75.2745C137.034 87.9848 147.338 98.2885 160.048 98.2885Z" fill="#FFB9B9"/>
<path d="M172.634 104.402C172.634 104.402 146.743 105.121 145.305 102.963C143.867 100.806 107.907 107.998 107.907 122.381C107.907 136.765 128.764 192.862 128.764 192.862C128.764 192.862 136.675 233.136 134.517 237.451C132.36 241.766 214.347 228.102 212.19 220.91C210.032 213.718 197.806 197.896 213.628 184.231C229.45 170.567 235.923 156.183 235.923 156.183L217.224 106.559C217.224 106.559 198.525 103.682 194.21 106.559C189.895 109.436 172.634 104.402 172.634 104.402Z" fill="#EDF4EE"/>
<path d="M230.888 159.779L235.923 156.183C235.923 156.183 282.67 107.278 270.444 97.9289C258.218 88.5795 240.238 79.9492 231.608 79.23C222.977 78.5108 215.786 72.0382 215.786 72.0382C215.786 72.0382 206.436 55.4969 199.244 66.2847C192.052 77.0725 184.141 80.6684 194.21 84.2643C204.279 87.8603 210.751 86.4219 215.786 90.0179C220.82 93.6138 240.238 99.3673 231.608 101.525C226.659 102.724 221.841 104.411 217.224 106.559L207.874 123.1L230.888 159.779Z" fill="#EDF4EE"/>
<path d="M149.62 281.322C149.62 281.322 168.319 308.651 154.655 307.213C140.99 305.774 134.517 287.075 134.517 287.075L149.62 281.322Z" fill="#FFB9B9"/>
<path d="M112.942 118.785L107.907 122.381C107.907 122.381 91.366 212.999 107.907 236.732C124.449 260.465 125.887 259.027 125.887 259.027C125.887 259.027 128.764 256.869 130.202 271.253C131.64 285.637 129.483 291.39 133.798 291.39C138.113 291.39 157.531 287.075 156.093 283.479C154.655 279.883 145.305 259.027 144.586 253.993C143.867 248.958 140.271 237.451 138.832 230.979C137.394 224.506 145.305 220.91 141.709 207.245C138.113 193.581 133.079 169.128 133.079 164.094C133.079 159.06 112.942 118.785 112.942 118.785Z" fill="#EDF4EE"/>
<path d="M137.754 54.7776C137.754 62.523 148.379 68.8018 161.487 68.8018C174.594 68.8018 186.658 72.9512 186.658 65.2059C186.658 57.4605 174.594 40.7535 161.487 40.7535C148.379 40.7535 137.754 47.0323 137.754 54.7776Z" fill="#2F2E41"/>
<path d="M195.792 91.6353C195.792 91.6353 196.761 117.707 170.853 116.268C144.946 114.83 174.354 93.9828 174.354 93.9828L195.792 91.6353Z" fill="#2F2E41"/>
<path d="M795.906 541.462H93V543.703H795.906V541.462Z" fill="#3F3D56"/>
</g>
<defs>
<clipPath id="clip0">
<rect width="887.873" height="569.68" fill="white"/>
</clipPath>
</defs>
</svg>
