<svg width="760" height="726" viewBox="0 0 760 726" fill="none" xmlns="http://www.w3.org/2000/svg">
<path d="M496.09 699.34V707.16H264.84V700.81C278.943 695.585 291.179 686.293 299.998 674.111C308.817 661.928 313.824 647.403 314.384 632.374C314.944 617.344 311.032 602.487 303.144 589.682C295.255 576.877 283.745 566.7 270.07 560.44H494.52C481.152 566.561 469.846 576.428 461.973 588.846C454.1 601.263 449.998 615.698 450.164 630.4C450.33 645.102 454.757 659.441 462.909 671.677C471.061 683.914 482.587 693.523 496.09 699.34Z" fill="#C8CAD7"/>
<path opacity="0.1" d="M494.52 560.44C484.205 565.176 475.08 572.159 467.813 580.878C460.545 589.597 455.32 599.831 452.52 610.83H312.08C309.278 599.831 304.053 589.598 296.786 580.879C289.519 572.161 280.394 565.177 270.08 560.44H494.52Z" fill="black"/>
<path d="M0 520.6V564.5C0 588.74 17.74 608.39 39.63 608.39H720.05C741.94 608.39 759.68 588.74 759.68 564.5V520.6H0Z" fill="#C8CAD7"/>
<path opacity="0.1" d="M496.09 699.34V707.16H264.84V700.81C271.18 698.451 277.176 695.256 282.67 691.31H481.91C486.337 694.485 491.091 697.177 496.09 699.34Z" fill="black"/>
<path d="M563.01 693.75H197.92C192.673 693.75 188.42 698.003 188.42 703.25V707.42C188.42 712.667 192.673 716.92 197.92 716.92H563.01C568.257 716.92 572.51 712.667 572.51 707.42V703.25C572.51 698.003 568.257 693.75 563.01 693.75Z" fill="#C8CAD7"/>
<path d="M759.68 39.57C759.667 29.069 755.485 19.003 748.054 11.583C740.623 4.16401 730.551 -0.00297826 720.05 2.17438e-05H39.66C29.154 -0.0109783 19.074 4.15202 11.636 11.573C4.199 18.993 0.013 29.064 0 39.57V529.14H759.68V39.57Z" fill="#474157"/>
<path d="M739 57.25V477.92C739.001 480.482 738.498 483.02 737.518 485.388C736.538 487.755 735.101 489.907 733.289 491.719C731.477 493.531 729.325 494.968 726.958 495.948C724.59 496.928 722.052 497.431 719.49 497.43H40.27C37.708 497.431 35.17 496.928 32.802 495.948C30.435 494.968 28.283 493.531 26.471 491.719C24.66 489.907 23.222 487.755 22.242 485.388C21.262 483.02 20.759 480.482 20.76 477.92V57.25C20.76 52.076 22.816 47.113 26.474 43.454C30.133 39.796 35.096 37.74 40.27 37.74H719.44C722.006 37.733 724.549 38.233 726.922 39.211C729.294 40.188 731.451 41.624 733.268 43.437C735.085 45.249 736.527 47.402 737.51 49.772C738.494 52.143 739 54.684 739 57.25Z" fill="#EDF4EE"/>
<path d="M379.85 27.99C384.903 27.99 389 23.893 389 18.84C389 13.787 384.903 9.69 379.85 9.69C374.797 9.69 370.7 13.787 370.7 18.84C370.7 23.893 374.797 27.99 379.85 27.99Z" fill="white"/>
<path d="M379.85 588.89C392.31 588.89 402.41 578.79 402.41 566.33C402.41 553.87 392.31 543.77 379.85 543.77C367.39 543.77 357.29 553.87 357.29 566.33C357.29 578.79 367.39 588.89 379.85 588.89Z" fill="white"/>
<path d="M190 47.95V496.95H42.725C39.872 496.951 37.046 496.449 34.409 495.471C31.773 494.493 29.377 493.059 27.36 491.25C25.342 489.442 23.742 487.295 22.651 484.933C21.559 482.57 20.999 480.037 21 477.48V57.68L21.791 55.035L23.906 47.95H190Z" fill="white"/>
<path d="M189.5 54.6V95.1H20.76V57.25L21.47 54.6H189.5Z" fill="#4C4C78"/>
<path d="M739 57.25H20.76C20.76 54.688 21.265 52.152 22.245 49.785C23.226 47.419 24.663 45.269 26.475 43.458C28.287 41.647 30.438 40.211 32.805 39.231C35.172 38.252 37.708 37.749 40.27 37.75H719.44C722.006 37.742 724.548 38.241 726.921 39.217C729.294 40.194 731.45 41.629 733.267 43.44C735.084 45.252 736.526 47.404 737.51 49.774C738.494 52.144 739 54.684 739 57.25Z" fill="#C8CAD7"/>
<path d="M40.27 52.38C42.965 52.38 45.15 50.195 45.15 47.5C45.15 44.805 42.965 42.62 40.27 42.62C37.575 42.62 35.39 44.805 35.39 47.5C35.39 50.195 37.575 52.38 40.27 52.38Z" fill="#FD3030"/>
<path d="M54.9 52.38C57.595 52.38 59.78 50.195 59.78 47.5C59.78 44.805 57.595 42.62 54.9 42.62C52.205 42.62 50.02 44.805 50.02 47.5C50.02 50.195 52.205 52.38 54.9 52.38Z" fill="#FFBF00"/>
<path d="M69.53 52.38C72.225 52.38 74.41 50.195 74.41 47.5C74.41 44.805 72.225 42.62 69.53 42.62C66.835 42.62 64.65 44.805 64.65 47.5C64.65 50.195 66.835 52.38 69.53 52.38Z" fill="#35C944"/>
<path d="M147.31 72.43H45.98V81.76H147.31V72.43Z" fill="#121212"/>
<path opacity="0.5" d="M147.31 117.93H45.98V127.26H147.31V117.93Z" fill="#2A8356"/>
<path opacity="0.5" d="M147.31 150.1H45.98V159.43H147.31V150.1Z" fill="#2A8356"/>
<path opacity="0.5" d="M147.31 182.27H45.98V191.6H147.31V182.27Z" fill="#2A8356"/>
<path opacity="0.5" d="M147.31 214.43H45.98V223.76H147.31V214.43Z" fill="#2A8356"/>
<path opacity="0.5" d="M147.31 246.6H45.98V255.93H147.31V246.6Z" fill="#2A8356"/>
<path opacity="0.5" d="M147.31 278.77H45.98V288.1H147.31V278.77Z" fill="#2A8356"/>
<path opacity="0.5" d="M147.31 310.93H45.98V320.26H147.31V310.93Z" fill="#2A8356"/>
<path opacity="0.5" d="M704.5 106.74H255.49V108.24H704.5V106.74Z" fill="#121212"/>
<path opacity="0.5" d="M704.5 141.57H255.49V143.07H704.5V141.57Z" fill="#121212"/>
<path opacity="0.5" d="M704.5 176.41H255.49V177.91H704.5V176.41Z" fill="#121212"/>
<path opacity="0.5" d="M704.5 211.24H255.49V212.74H704.5V211.24Z" fill="#121212"/>
<path opacity="0.5" d="M704.5 246.07H255.49V247.57H704.5V246.07Z" fill="#121212"/>
<path d="M333.3 205.18C292.82 205.18 255.4 180.42 254.94 180.1L256.05 178.44C256.63 178.83 314.21 216.93 363.14 197.84C381 190.89 393.68 180.06 406 169.6C418.83 158.67 430.95 148.34 447.46 143.86C466.46 138.73 487.11 143.38 502.84 156.3C516.28 167.35 543.06 185.1 571.35 179.79C585.77 177.09 597.93 166.55 610.8 155.4C635.44 134 661 111.91 705.09 143.63L703.92 145.25C661.07 114.46 636.16 136.04 612.08 156.91C599 168.25 586.64 178.91 571.69 181.76C542.59 187.21 515.25 169.12 501.54 157.85C486.31 145.33 466.28 140.85 447.96 145.8C431.87 150.16 419.96 160.34 407.27 171.12C394.86 181.69 382.02 192.63 363.87 199.71C354.109 203.42 343.742 205.275 333.3 205.18Z" fill="#2A8356"/>
<path d="M471.55 153.45C477.697 153.45 482.68 148.467 482.68 142.32C482.68 136.173 477.697 131.19 471.55 131.19C465.403 131.19 460.42 136.173 460.42 142.32C460.42 148.467 465.403 153.45 471.55 153.45Z" fill="#FFC107"/>
<path d="M192.62 384.19C177.41 375.43 171.62 373.26 171.62 373.25L171.31 373.03C169.649 371.756 168.329 370.089 167.47 368.18C167.47 367.83 167.47 367.48 167.47 367.18V367.28C167.72 362.64 171.01 358.43 174.14 354.75C176.807 351.61 179.473 348.473 182.14 345.34C183.059 344.388 183.762 343.249 184.2 342C184.363 341.346 184.437 340.674 184.42 340C184.42 339.72 184.42 339.45 184.42 339.18C184.42 336.84 184.31 334.5 184.23 332.18C184.15 330.13 183.63 327.56 181.58 327.18C180.52 326.96 179.12 327.34 178.58 326.43C178.384 326.058 178.334 325.627 178.44 325.22C178.44 325.22 178.44 325.28 178.44 325.31C178.436 325.273 178.436 325.237 178.44 325.2C178.834 323.622 179.089 322.013 179.2 320.39C179.236 319.567 179.124 318.744 178.87 317.96C177.68 314.57 173.61 313.18 170.01 312.54C166.41 311.9 162.37 311.35 160.11 308.54C159.49 307.603 158.823 306.698 158.11 305.83C157.063 304.907 155.79 304.279 154.42 304.01C149.954 302.904 145.246 303.315 141.04 305.18C139.3 305.96 137.55 307 135.64 306.89C133.73 306.78 131.96 305.39 130 305.06C126.84 304.52 123.81 306.85 122.25 309.6C121.325 311.232 120.833 313.074 120.82 314.95C120.82 315.05 120.82 315.16 120.82 315.26C120.781 317.277 121.518 319.232 122.88 320.72C124.24 322.14 126.27 323.11 126.88 324.97C127.11 325.73 127.06 326.55 127.26 327.31C127.26 327.41 127.32 327.5 127.35 327.6L127.24 327.73C123.992 331.911 122.232 337.056 122.24 342.35C122.271 347.49 123.935 352.488 126.99 356.622C130.046 360.755 134.335 363.812 139.24 365.35C139.24 365.58 139.24 365.82 139.24 366.07C139.308 367.571 139.048 369.069 138.478 370.459C137.908 371.849 137.042 373.099 135.94 374.12L114.36 382.78C114.36 382.78 101.36 381.24 96.68 400.23C95.93 403.381 95.66 406.628 95.88 409.86C96.05 412.73 95.65 417.77 92.32 424.29C86.99 434.73 88.2 458.68 99.1 461.05C109.39 463.29 113.42 462.36 113.84 462.25V462.67C113.67 467.17 112.04 505.93 106.11 510.67C104.46 511.96 104.77 512.84 106.11 513.43C106.11 513.43 106.11 513.68 106.11 514.13C105.93 516.97 105.01 527.76 101.04 533.91C96.48 541 97 582 97 582L93.86 606.19C93.86 606.19 95.79 621.13 93.86 623.74C92.13 626.07 89.86 681.35 89.34 693.33H89.14C88.191 693.387 87.269 693.676 86.457 694.171C85.645 694.666 84.966 695.352 84.48 696.17C81.9 700.31 73 707.94 73 707.94C71.07 710.69 63.91 713.32 60.13 714.56C59.624 714.722 59.135 714.933 58.67 715.19C57.255 715.961 56.118 717.157 55.42 718.61C55.174 719.038 55.017 719.511 54.959 720C54.901 720.49 54.942 720.987 55.08 721.46C56.08 723.83 76.15 725.46 81.23 723.12C85.23 721.26 101.07 718.8 107.65 717.84C108.844 717.69 109.954 717.146 110.805 716.295C111.656 715.444 112.2 714.334 112.35 713.14C112.413 712.728 112.392 712.308 112.289 711.904C112.186 711.5 112.003 711.121 111.75 710.79C110.49 709.23 109.84 704.97 109.55 702.19C110.084 701.971 110.583 701.675 111.03 701.31C110.49 692.691 111.726 684.052 114.66 675.93C119.5 663.13 120.96 639.41 119.75 623.99C119.75 623.99 134.52 560.42 146.15 554.49C146.33 554.71 151.97 561.95 152.69 584.37C153.41 607.14 161.64 622.08 161.64 622.08C161.64 622.08 158.01 660.74 161.64 675.21L156.87 698C156.671 697.837 156.481 697.663 156.3 697.48C156.3 697.48 156.44 698.12 156.64 699.13L156.54 699.61L156.74 699.66C157.28 702.51 158.08 707.48 157.74 710.4C157.55 712.07 157.09 714.34 156.74 716.58C156.24 720.09 156.1 723.5 157.95 724.24C160.95 725.46 178.78 727.13 181.81 723.24C182.489 722.443 182.931 721.471 183.087 720.436C183.242 719.4 183.105 718.342 182.69 717.38C182.47 716.843 182.174 716.342 181.81 715.89C181.81 715.89 177.08 708.16 178.42 702.71C178.543 702.179 178.555 701.628 178.457 701.091C178.359 700.555 178.153 700.044 177.85 699.59C178.544 690.962 179.931 682.405 182 674C185 662.59 191.42 637.57 186.72 621.11C186.54 620.47 186.34 619.83 186.12 619.21C183.405 610.227 182.497 600.796 183.45 591.46C181.701 583.492 181.701 575.238 183.45 567.27C186.33 554 188.36 541 188.36 541C188.36 541 189.96 523.45 188.56 512.69L188.47 512L189.23 511.83C189.23 511.83 185.12 493.57 183.66 481.95C183.32 479.2 182.87 475.73 182.38 472.02C183.721 471.79 185.041 471.455 186.33 471.02C199.41 466.51 203.52 425.71 203.52 425.71V412.77C203.52 412.77 207.88 393 192.62 384.19ZM95.19 699.19L94.55 698.85L95.19 699.19Z" fill="url(#paint0_linear)"/>
<path d="M184.73 619.6C190.4 635.91 183.73 662.38 180.73 674.2C178.71 682.747 177.372 691.441 176.73 700.2C169.829 701.365 162.77 701.202 155.93 699.72L160.93 675.38C157.39 660.96 160.93 622.43 160.93 622.43C160.93 622.43 152.93 607.53 152.19 584.84C151.49 562.51 145.99 555.29 145.81 555.06C134.38 561 120 624.33 120 624.33C121.18 639.69 119.76 663.33 115 676.1C112.131 684.206 110.924 692.807 111.45 701.39C109.8 702.78 107.5 703.02 105.02 702.62C98.27 701.53 90.18 695.71 90.18 695.71C90.18 695.71 92.78 626.71 94.67 624.09C96.56 621.47 94.67 606.6 94.67 606.6L97.74 582.49C97.74 582.49 97.27 541.6 101.74 534.49C105.62 528.36 106.51 517.6 106.69 514.78C106.69 514.33 106.69 514.08 106.69 514.08L113.53 505.89C113.53 505.89 179.72 500.89 184.68 505.89C185.9 507.11 186.68 509.89 187.1 513.37C188.46 524.09 186.9 541.58 186.9 541.58C186.9 541.58 184.9 554.58 182.08 567.81C180.373 575.756 180.373 583.974 182.08 591.92C181.156 601.231 182.056 610.633 184.73 619.6Z" fill="#65617D"/>
<path d="M180.59 723.25C177.64 727.15 160.27 725.5 157.31 724.25C155.5 723.5 155.64 720.11 156.13 716.61C156.44 714.38 156.89 712.11 157.07 710.46C157.55 706.2 155.66 697.57 155.66 697.57C155.66 697.57 159.56 701.71 160.5 697.57C160.717 696.78 161.146 696.065 161.74 695.501C162.334 694.937 163.07 694.546 163.87 694.37C165.896 693.757 168.075 693.892 170.01 694.75C173.08 696.08 178.2 698.92 177.28 702.75C175.98 708.18 180.59 715.88 180.59 715.88C180.948 716.332 181.237 716.834 181.45 717.37C181.865 718.334 182.004 719.394 181.852 720.432C181.7 721.47 181.263 722.445 180.59 723.25Z" fill="#A27772"/>
<path opacity="0.1" d="M180.59 723.25C177.64 727.15 160.27 725.5 157.31 724.25C155.5 723.5 155.64 720.11 156.13 716.61C157.99 717.48 161.13 718.21 166.45 717.72C167.686 717.6 168.929 717.56 170.17 717.6C173.931 717.776 177.699 717.703 181.45 717.38C181.863 718.342 182.001 719.4 181.849 720.436C181.697 721.473 181.261 722.446 180.59 723.25Z" fill="black"/>
<path opacity="0.1" d="M120 624.33C121.18 639.69 119.76 663.33 115 676.1C112.131 684.206 110.924 692.807 111.45 701.39C109.8 702.78 107.5 703.02 105.02 702.62C106.45 692.62 112.52 649.69 116.42 615.76C120.85 577.11 141.59 550.52 141.59 550.52L145.73 555.07C134.38 561 120 624.33 120 624.33Z" fill="black"/>
<path d="M173.5 375.9L170.61 390.08L156.48 413.84L139.05 406.39C139.05 406.39 115.35 381.57 130.24 378.03C132.025 377.649 133.711 376.899 135.19 375.83C138.11 373.62 139.03 370.42 139.05 367.28C138.932 363.762 138.109 360.304 136.63 357.11L167.12 347.54C165.859 351.545 165.123 355.696 164.93 359.89C164.7 368.19 167.78 372.29 170.31 374.24C171.252 375.001 172.336 375.565 173.5 375.9Z" fill="#FBBEBE"/>
<path opacity="0.1" d="M167.12 347.54C165.859 351.545 165.123 355.696 164.93 359.89C161.841 363.556 157.728 366.218 153.118 367.534C148.508 368.851 143.61 368.762 139.05 367.28C138.932 363.762 138.109 360.304 136.63 357.11L167.12 347.54Z" fill="black"/>
<path d="M170.61 343.64C170.61 348.409 169.196 353.07 166.547 357.035C163.898 361 160.132 364.09 155.727 365.915C151.321 367.74 146.473 368.217 141.796 367.287C137.12 366.356 132.824 364.06 129.452 360.688C126.08 357.317 123.784 353.021 122.853 348.344C121.923 343.667 122.4 338.819 124.225 334.414C126.05 330.008 129.14 326.243 133.105 323.593C137.07 320.944 141.732 319.53 146.5 319.53C149.668 319.522 152.807 320.14 155.736 321.349C158.665 322.558 161.326 324.334 163.566 326.574C165.806 328.814 167.582 331.475 168.791 334.404C170 337.333 170.618 340.472 170.61 343.64Z" fill="#FBBEBE"/>
<path opacity="0.1" d="M173.5 375.9L170.61 390.08L156.48 413.84L139.05 406.39C139.05 406.39 115.35 381.57 130.24 378.03C132.025 377.649 133.711 376.899 135.19 375.83C132.5 383.22 143.6 398.59 143.6 398.59C144.89 400.49 147.86 399.3 147.86 399.3C155 398.22 168.17 377.66 170.31 374.24C171.252 375.001 172.336 375.565 173.5 375.9Z" fill="black"/>
<path opacity="0.1" d="M187.15 513.39C182.95 514.39 159.73 519.48 150.93 518.2C141.24 516.78 122.39 515.84 122.39 515.84C122.39 515.84 110.39 516.48 106.71 514.84C106.71 514.39 106.71 514.14 106.71 514.14L113.55 505.95C113.55 505.95 179.74 500.95 184.7 505.95C186 507.13 186.7 509.9 187.15 513.39Z" fill="black"/>
<path d="M143.6 399.3C143.6 399.3 131.13 382.03 135.83 375.3L114.76 383.94C114.76 383.94 102.08 382.4 97.51 401.32C96.778 404.467 96.511 407.705 96.72 410.93C96.89 413.78 96.5 418.8 93.25 425.3C88.05 435.7 89.25 459.58 99.87 461.94C110.49 464.3 114.29 463.12 114.29 463.12C114.29 463.12 112.87 506.38 106.73 511.34C100.59 516.3 122.4 515.12 122.4 515.12C122.4 515.12 141.24 516.12 150.93 517.49C160.62 518.86 187.8 512.49 187.8 512.49C187.8 512.49 183.8 494.29 182.36 482.71C180.92 471.13 177.64 446.47 177.64 446.47L201.75 413.81C201.75 413.81 206 394.07 191.11 385.33C176.22 376.59 170.61 374.43 170.61 374.43C170.61 374.43 155.61 398.8 147.85 399.98C147.85 400 144.89 401.2 143.6 399.3Z" fill="#FFC003"/>
<path opacity="0.1" d="M115.94 406.16C115.94 406.16 115.71 413.96 117.13 417.03C118.55 420.1 123.74 437.12 123.74 437.12H111.93C111.93 437.12 118.31 430.27 117.84 426.96C117.37 423.65 115.94 406.16 115.94 406.16Z" fill="black"/>
<path d="M150.93 465C150.93 465 124.83 458.62 122.4 453.19C119.97 447.76 113.26 435.58 113.26 435.58L116.01 431.87L128.71 441.87C128.71 441.87 143.84 453.87 150.93 455.11C158.02 456.35 150.93 465 150.93 465Z" fill="#FBBEBE"/>
<path opacity="0.05" d="M150.93 465C150.93 465 124.83 458.62 122.4 453.19C119.97 447.76 113.26 435.58 113.26 435.58L116.01 431.87L128.71 441.87C128.71 441.87 143.84 453.87 150.93 455.11C158.02 456.35 150.93 465 150.93 465Z" fill="black"/>
<path d="M173.5 434.29V448.45H171.22C159.974 448.45 148.913 451.313 139.08 456.77L134.82 459.13L133.67 459.77L126.34 443.27L133.2 437.12H133.55C135.23 437.28 142.48 437.88 145.55 436.85C148.62 435.82 152.1 432.71 160.69 434.91C164.93 435.99 168.54 440.74 172.69 439.26L173.5 434.29Z" fill="#FBBEBE"/>
<path opacity="0.1" d="M196.31 408.52L201.04 413.84V426.72C201.04 426.72 197.04 467.38 184.26 471.87C171.48 476.36 148.71 469.27 148.71 469.27C148.71 469.27 142.82 453.67 145.57 452.72C148.32 451.77 169.91 446.08 169.91 446.08C169.91 446.08 169.6 422.23 174.33 415.14C174.33 415.14 171.26 392.92 181.89 392.45C192.52 391.98 196.31 408.52 196.31 408.52Z" fill="black"/>
<path d="M197 408.52L201.73 413.84V426.72C201.73 426.72 197.73 467.38 184.94 471.87C172.15 476.36 149.4 469.27 149.4 469.27C149.4 469.27 143.51 453.67 146.26 452.72C149.01 451.77 170.59 446.08 170.59 446.08C170.59 446.08 170.29 422.23 175.02 415.14C175.02 415.14 171.94 392.92 182.58 392.45C193.22 391.98 197 408.52 197 408.52Z" fill="#FFBF00"/>
<path opacity="0.1" d="M164 353.88C164.21 352.326 164.025 350.743 163.46 349.28C163.164 348.557 162.636 347.952 161.959 347.561C161.282 347.17 160.495 347.015 159.72 347.12C157.72 347.59 156.82 350.22 154.84 350.85C153.17 351.38 151.34 350.2 150.54 348.64C149.87 347.014 149.59 345.254 149.72 343.5C149.72 341.5 149.72 339.55 149.72 337.57C149.72 335.42 149.65 333.1 148.32 331.41C146.67 329.31 142.8 328.41 140.22 328.48C138.498 328.498 136.846 329.162 135.59 330.34C134.959 330.975 134.195 331.461 133.352 331.762C132.509 332.063 131.61 332.171 130.72 332.08C129.935 331.959 129.201 331.62 128.601 331.099C128.001 330.579 127.56 329.9 127.33 329.14C127.326 329.114 127.326 329.086 127.33 329.06C129.339 326.404 131.877 324.192 134.783 322.566C137.69 320.939 140.901 319.932 144.216 319.608C147.531 319.285 150.877 319.651 154.043 320.685C157.209 321.719 160.127 323.398 162.612 325.615C165.097 327.833 167.095 330.541 168.482 333.57C169.868 336.598 170.612 339.881 170.666 343.211C170.72 346.541 170.084 349.846 168.797 352.918C167.511 355.99 165.601 358.763 163.19 361.06C163.589 358.683 163.86 356.286 164 353.88Z" fill="black"/>
<path d="M130.71 331.37C129.925 331.248 129.19 330.907 128.588 330.388C127.987 329.868 127.544 329.189 127.31 328.43C127.12 327.67 127.17 326.85 126.94 326.1C126.39 324.24 124.41 323.27 123.08 321.86C120.42 319.04 120.59 314.39 122.47 310.99C124 308.25 126.95 305.94 130.04 306.47C131.95 306.81 133.6 308.17 135.54 308.29C137.48 308.41 139.11 307.37 140.81 306.59C144.906 304.734 149.511 304.325 153.87 305.43C155.212 305.697 156.456 306.322 157.47 307.24C158.158 308.105 158.799 309.006 159.39 309.94C161.59 312.75 165.54 313.3 169.05 313.94C172.56 314.58 176.54 315.94 177.69 319.35C178.46 321.59 177.69 324.02 177.28 326.35C177.127 326.828 177.159 327.345 177.37 327.8C177.92 328.71 179.29 328.33 180.37 328.54C182.37 328.96 182.87 331.54 182.94 333.54C183.033 335.86 183.097 338.193 183.13 340.54C183.189 341.408 183.122 342.281 182.93 343.13C182.499 344.342 181.817 345.449 180.93 346.38L173.12 355.76C169.66 359.92 165.99 364.76 166.68 370.13C165.04 370.86 163.1 369.45 162.56 367.73C162.02 366.01 162.45 364.17 162.82 362.41C163.449 359.366 163.86 356.282 164.05 353.18C164.261 351.622 164.075 350.037 163.51 348.57C163.212 347.846 162.682 347.241 162.004 346.85C161.325 346.459 160.536 346.305 159.76 346.41C157.76 346.88 156.87 349.51 154.89 350.14C153.22 350.68 151.39 349.49 150.59 347.93C149.925 346.303 149.644 344.544 149.77 342.79V336.86C149.77 334.71 149.7 332.39 148.37 330.7C146.73 328.6 142.85 327.7 140.27 327.77C138.548 327.788 136.896 328.452 135.64 329.63C135.003 330.273 134.228 330.764 133.374 331.065C132.521 331.366 131.61 331.471 130.71 331.37Z" fill="#7C5C5C"/>
<path opacity="0.1" d="M136.15 405.57L143.56 435.97C143.56 435.97 149.39 435.94 136.15 405.57Z" fill="black"/>
<path opacity="0.1" d="M161.45 400.48C161.45 400.48 151.75 416.36 155.54 432.77L157.34 432.9C157.34 432.9 154.12 425.3 161.45 400.48Z" fill="black"/>
<path opacity="0.1" d="M167.59 490.31C167.59 490.31 179.49 486.37 180.36 495.51C180.36 495.51 178.11 489.24 167.59 490.31Z" fill="black"/>
<path opacity="0.1" d="M133.2 437.83C133.2 437.83 130.84 454.38 135.09 461C128.422 463.349 121.344 464.312 114.29 463.83L112.87 437.83H133.2Z" fill="black"/>
<path opacity="0.1" d="M134.82 459.13L133.67 459.77L126.34 443.27L133.2 437.12H133.55C133.44 437.92 131.53 452.13 134.82 459.13Z" fill="black"/>
<path d="M133.2 437.12C133.2 437.12 130.84 453.67 135.09 460.29C128.422 462.639 121.344 463.602 114.29 463.12L106.02 437.12H133.2Z" fill="#FFC107"/>
<path d="M112.75 713.19C112.614 714.369 112.089 715.47 111.258 716.317C110.426 717.165 109.336 717.711 108.16 717.87C101.75 718.87 86.28 721.27 82.38 723.13C77.38 725.5 57.8 723.84 56.85 721.48C56.717 721.006 56.678 720.51 56.737 720.021C56.795 719.532 56.949 719.059 57.19 718.63C57.647 717.689 58.289 716.85 59.078 716.163C59.867 715.476 60.786 714.954 61.78 714.63C65.48 713.39 72.46 710.78 74.34 708.04C74.34 708.04 83.04 700.42 85.52 696.31C85.986 695.499 86.645 694.816 87.439 694.322C88.233 693.829 89.137 693.539 90.07 693.48C92.14 693.38 94.44 694.43 95.39 698.96C95.39 698.96 106.73 705.43 109.8 699.76C109.8 699.76 110.27 708.47 112.15 710.86C112.399 711.19 112.58 711.565 112.683 711.965C112.786 712.365 112.809 712.781 112.75 713.19Z" fill="#A27772"/>
<path opacity="0.1" d="M112.75 713.19C112.614 714.369 112.089 715.47 111.258 716.317C110.426 717.165 109.336 717.711 108.16 717.87C101.75 718.87 86.28 721.27 82.38 723.13C77.38 725.5 57.8 723.84 56.85 721.48C56.717 721.006 56.678 720.51 56.737 720.021C56.795 719.532 56.949 719.059 57.19 718.63C57.864 717.192 58.973 716.003 60.36 715.23C63.56 717.35 70.66 719.43 86.28 716.99C101.18 714.66 108.55 712.38 112.15 710.83C112.403 711.163 112.586 711.544 112.689 711.949C112.792 712.355 112.813 712.776 112.75 713.19Z" fill="black"/>
<g opacity="0.1">
<path opacity="0.1" d="M177.25 326.67C177.255 326.63 177.255 326.59 177.25 326.55C177.718 324.801 177.963 323 177.98 321.19C177.829 322.638 177.585 324.074 177.25 325.49C177.16 325.878 177.16 326.282 177.25 326.67Z" fill="black"/>
<path opacity="0.1" d="M163.46 348.79C163.831 349.643 164.028 350.56 164.04 351.49C164.148 350.208 163.949 348.92 163.46 347.73C163.162 347.005 162.633 346.399 161.954 346.007C161.276 345.614 160.487 345.457 159.71 345.56C157.71 346.03 156.82 348.67 154.84 349.3C153.17 349.83 151.34 348.64 150.54 347.08C149.866 345.455 149.585 343.694 149.72 341.94C149.72 339.94 149.72 337.99 149.72 336.02C149.72 333.87 149.65 331.55 148.32 329.86C146.67 327.75 142.8 326.86 140.21 326.92C138.489 326.939 136.84 327.607 135.59 328.79C134.959 329.423 134.193 329.907 133.351 330.206C132.508 330.506 131.609 330.613 130.72 330.52C129.933 330.404 129.195 330.065 128.592 329.544C127.99 329.024 127.549 328.342 127.32 327.58C127.12 326.82 127.18 326.01 126.95 325.25C126.4 323.39 124.42 322.43 123.09 321.02C121.849 319.645 121.14 317.872 121.09 316.02C120.995 317.113 121.123 318.214 121.467 319.256C121.811 320.297 122.363 321.258 123.09 322.08C124.42 323.49 126.4 324.46 126.95 326.32C127.18 327.07 127.12 327.89 127.32 328.65C127.553 329.41 127.996 330.089 128.597 330.609C129.199 331.129 129.934 331.469 130.72 331.59C131.61 331.681 132.509 331.573 133.352 331.272C134.195 330.971 134.959 330.485 135.59 329.85C136.845 328.685 138.488 328.026 140.2 328C142.79 327.92 146.66 328.84 148.31 330.94C149.64 332.63 149.7 334.94 149.71 337.1C149.71 339.1 149.71 341.05 149.71 343.02C149.574 344.777 149.855 346.542 150.53 348.17C151.33 349.73 153.16 350.91 154.83 350.38C156.83 349.75 157.68 347.12 159.7 346.64C160.476 346.537 161.264 346.691 161.943 347.08C162.623 347.468 163.156 348.069 163.46 348.79Z" fill="black"/>
<path opacity="0.1" d="M182.89 342.28C182.456 343.493 181.775 344.604 180.89 345.54C178.277 348.66 175.673 351.783 173.08 354.91C169.8 358.86 166.32 363.43 166.57 368.47C166.81 363.85 170.03 359.65 173.08 355.98L180.89 346.6C181.775 345.667 182.456 344.56 182.89 343.35C183.083 342.498 183.15 341.622 183.09 340.75C183.085 341.266 183.017 341.78 182.89 342.28Z" fill="black"/>
<path opacity="0.1" d="M162.51 366.89C162.381 366.477 162.301 366.051 162.27 365.62C162.204 366.405 162.286 367.195 162.51 367.95C163.04 369.67 164.99 371.08 166.63 370.35C166.63 370 166.56 369.65 166.55 369.35C164.93 370 163 368.57 162.51 366.89Z" fill="black"/>
</g>
<path opacity="0.1" d="M84 698.42C84 698.42 86.47 702.76 95.43 698.93L84 698.42Z" fill="black"/>
<path opacity="0.1" d="M159.65 699.46C159.65 699.46 167.38 708.55 177.11 702.46L159.65 699.46Z" fill="black"/>
<path opacity="0.1" d="M182.13 591.94C182.13 591.94 176.67 595.35 176.49 597.3C176.31 599.25 179.31 595.88 179.31 595.88L182.13 591.94Z" fill="black"/>
<path opacity="0.1" d="M184.28 618.08C182.385 619.662 180.026 620.582 177.56 620.7C173.48 620.88 173.82 626.2 176.49 624.6C179.16 623 184.28 618.08 184.28 618.08Z" fill="black"/>
<path opacity="0.1" d="M185.32 621.49C185.32 621.49 182.7 634.35 180.57 631.87L185.32 621.49Z" fill="black"/>
<g opacity="0.5">
<path opacity="0.5" d="M361.17 325.6H295.17V339.6H361.17V325.6Z" fill="#2A8356"/>
<path opacity="0.5" d="M512.72 325.6H446.72V339.6H512.72V325.6Z" fill="#2A8356"/>
<path opacity="0.5" d="M664.27 325.6H598.27V339.6H664.27V325.6Z" fill="#2A8356"/>
</g>
<path d="M290.5 423.37C290.5 402.93 307.13 387.23 327.58 387.23H327.87V377.93H327.58C302 377.93 281.2 397.8 281.2 423.37C281.199 429.985 282.617 436.523 285.358 442.544C288.1 448.564 292.1 453.927 297.09 458.27L303.68 451.68C299.552 448.207 296.234 443.874 293.957 438.984C291.68 434.093 290.5 428.764 290.5 423.37Z" fill="#FFC107"/>
<path opacity="0.5" d="M328.8 377.94V387.24C334.755 387.28 340.613 388.754 345.878 391.537C351.143 394.32 355.659 398.331 359.046 403.23C362.432 408.128 364.589 413.771 365.332 419.68C366.076 425.588 365.385 431.589 363.319 437.174C361.252 442.759 357.87 447.764 353.459 451.766C349.048 455.767 343.738 458.646 337.979 460.161C332.219 461.675 326.18 461.779 320.371 460.465C314.563 459.151 309.156 456.456 304.61 452.61L298 459.2C303.632 464.125 310.373 467.613 317.646 469.367C324.919 471.121 332.508 471.089 339.766 469.273C347.024 467.458 353.734 463.913 359.325 458.941C364.915 453.969 369.219 447.717 371.869 440.721C374.52 433.725 375.437 426.191 374.544 418.763C373.65 411.335 370.972 404.233 366.739 398.065C362.505 391.897 356.841 386.844 350.231 383.34C343.621 379.835 336.261 377.983 328.78 377.94H328.8Z" fill="#2A8356"/>
<path opacity="0.5" d="M632.8 386.76C653.24 386.76 668.94 403.39 668.94 423.84C668.94 423.93 668.94 424.03 668.94 424.13H678.24C678.24 424.03 678.24 423.93 678.24 423.84C678.24 398.27 658.37 377.46 632.8 377.46C626.185 377.458 619.646 378.875 613.625 381.617C607.604 384.358 602.242 388.359 597.9 393.35L604.49 399.94C607.963 395.812 612.296 392.494 617.186 390.217C622.077 387.94 627.406 386.76 632.8 386.76Z" fill="#FFC107"/>
<path opacity="0.5" d="M678.23 425.06H668.93C668.89 431.015 667.416 436.873 664.633 442.138C661.85 447.403 657.839 451.919 652.94 455.306C648.042 458.692 642.399 460.849 636.49 461.592C630.582 462.336 624.581 461.645 618.996 459.579C613.411 457.512 608.406 454.13 604.404 449.719C600.403 445.308 597.524 439.998 596.009 434.239C594.495 428.479 594.391 422.44 595.705 416.631C597.019 410.823 599.714 405.416 603.56 400.87L597 394.28C592.075 399.912 588.587 406.653 586.833 413.926C585.079 421.199 585.111 428.788 586.927 436.046C588.742 443.304 592.287 450.014 597.259 455.605C602.231 461.195 608.483 465.499 615.479 468.149C622.475 470.8 630.009 471.717 637.437 470.824C644.865 469.93 651.967 467.252 658.135 463.019C664.303 458.785 669.356 453.121 672.86 446.511C676.365 439.901 678.217 432.541 678.26 425.06H678.23Z" fill="#2A8356"/>
<path opacity="0.5" d="M498 380.66L496.15 389.92C509.76 395.41 518.46 408.75 518.46 424.3C518.462 430.982 516.658 437.541 513.238 443.282C509.818 449.023 504.91 453.733 499.033 456.913C493.156 460.094 486.529 461.626 479.852 461.349C473.176 461.072 466.698 458.995 461.105 455.339C455.512 451.682 451.011 446.582 448.079 440.577C445.147 434.572 443.893 427.887 444.448 421.228C445.004 414.568 447.35 408.183 451.237 402.748C455.124 397.312 460.408 393.029 466.53 390.35L462.41 382C454.81 385.421 448.273 390.828 443.486 397.651C438.7 404.475 435.842 412.462 435.212 420.773C434.583 429.083 436.206 437.41 439.909 444.877C443.613 452.343 449.262 458.673 456.26 463.2C463.258 467.727 471.347 470.283 479.675 470.601C488.004 470.918 496.264 468.984 503.586 465.003C510.908 461.021 517.021 455.14 521.283 447.977C525.544 440.814 527.795 432.635 527.8 424.3C527.8 404.23 515.92 387.11 498 380.66Z" fill="#2A8356"/>
<path d="M482.59 386.69C487.032 386.688 491.426 387.601 495.5 389.37L497.35 380.12C492.641 378.307 487.636 377.382 482.59 377.39C476.038 377.39 469.561 378.784 463.59 381.48L467.75 389.81C472.425 387.748 477.48 386.685 482.59 386.69Z" fill="#FFC107"/>
<path opacity="0.5" d="M704.51 247.56H254.94V179.06L296.17 199.38L338.84 205.16L376.28 193.87L421.45 158.84L444.17 145.72L460.78 142.52L476.67 143.37L502.81 156.28L538.33 178.91L566.21 182.5L588.32 174.88L635.17 136.5L659.09 127.97L684.12 131.84L704.51 143.61V247.56Z" fill="#2A8356"/>
<defs>
<linearGradient id="paint0_linear" x1="129.5" y1="725.69" x2="129.5" y2="303.37" gradientUnits="userSpaceOnUse">
<stop stop-color="#808080" stop-opacity="0.25"/>
<stop offset="0.54" stop-color="#808080" stop-opacity="0.12"/>
<stop offset="1" stop-color="#808080" stop-opacity="0.1"/>
</linearGradient>
</defs>
</svg>
