<svg width="1130" height="869" viewBox="0 0 1130 869" fill="none" xmlns="http://www.w3.org/2000/svg">
<path d="M672.09 832.39V840.21H440.84V833.86C454.943 828.635 467.179 819.343 475.998 807.161C484.817 794.978 489.824 780.453 490.384 765.424C490.944 750.394 487.032 735.537 479.144 722.732C471.255 709.927 459.745 699.75 446.07 693.49H670.52C657.152 699.611 645.846 709.478 637.973 721.896C630.1 734.313 625.998 748.748 626.164 763.45C626.33 778.152 630.757 792.491 638.909 804.727C647.061 816.964 658.587 826.573 672.09 832.39V832.39Z" fill="#C8CAD7"/>
<path opacity="0.1" d="M670.52 693.49C660.205 698.226 651.08 705.209 643.813 713.928C636.545 722.647 631.32 732.881 628.52 743.88H488.08C485.278 732.881 480.053 722.648 472.786 713.929C465.519 705.211 456.394 698.227 446.08 693.49H670.52Z" fill="black"/>
<path d="M176 653.65V697.55C176 721.79 193.74 741.44 215.63 741.44H896.05C917.94 741.44 935.68 721.79 935.68 697.55V653.65H176Z" fill="#C8CAD7"/>
<path opacity="0.1" d="M672.09 832.39V840.21H440.84V833.86C447.18 831.501 453.176 828.306 458.67 824.36H657.91C662.337 827.535 667.091 830.227 672.09 832.39V832.39Z" fill="black"/>
<path d="M739.01 826.8H373.92C368.673 826.8 364.42 831.053 364.42 836.3V840.47C364.42 845.717 368.673 849.97 373.92 849.97H739.01C744.257 849.97 748.51 845.717 748.51 840.47V836.3C748.51 831.053 744.257 826.8 739.01 826.8Z" fill="#C8CAD7"/>
<path d="M935.68 172.62C935.667 162.119 931.485 152.053 924.054 144.633C916.623 137.214 906.551 133.047 896.05 133.05H215.66C205.154 133.039 195.074 137.202 187.636 144.623C180.199 152.043 176.013 162.114 176 172.62V662.19H935.68V172.62Z" fill="#474157"/>
<path d="M915 190.3V610.97C915.001 613.532 914.498 616.07 913.518 618.438C912.538 620.805 911.101 622.957 909.289 624.769C907.477 626.581 905.325 628.018 902.958 628.998C900.59 629.978 898.052 630.481 895.49 630.48H216.27C213.708 630.481 211.17 629.978 208.802 628.998C206.435 628.018 204.283 626.581 202.471 624.769C200.66 622.957 199.222 620.805 198.242 618.438C197.262 616.07 196.759 613.532 196.76 610.97V190.3C196.76 185.126 198.816 180.163 202.474 176.504C206.133 172.846 211.096 170.79 216.27 170.79H895.44C898.006 170.783 900.549 171.283 902.922 172.261C905.294 173.238 907.451 174.674 909.268 176.487C911.085 178.299 912.527 180.452 913.51 182.822C914.494 185.193 915 187.734 915 190.3V190.3Z" fill="#EDF4EE"/>
<path d="M555.85 161.04C560.903 161.04 565 156.943 565 151.89C565 146.837 560.903 142.74 555.85 142.74C550.797 142.74 546.7 146.837 546.7 151.89C546.7 156.943 550.797 161.04 555.85 161.04Z" fill="white"/>
<path d="M555.85 721.94C568.31 721.94 578.41 711.84 578.41 699.38C578.41 686.92 568.31 676.82 555.85 676.82C543.39 676.82 533.29 686.92 533.29 699.38C533.29 711.84 543.39 721.94 555.85 721.94Z" fill="white"/>
<path d="M366 181V630H218.725C215.872 630.001 213.046 629.499 210.409 628.521C207.773 627.543 205.377 626.109 203.36 624.3C201.342 622.492 199.742 620.345 198.651 617.983C197.559 615.62 196.999 613.087 197 610.53V190.73L197.791 188.085L199.906 181H366Z" fill="white"/>
<path d="M365.5 187.65V228.15H196.76V190.3L197.47 187.65H365.5Z" fill="#4C4C78"/>
<path d="M915 190.3H196.76C196.76 187.738 197.265 185.202 198.245 182.835C199.226 180.469 200.663 178.319 202.475 176.508C204.287 174.697 206.438 173.261 208.805 172.281C211.172 171.302 213.708 170.799 216.27 170.8H895.44C898.006 170.792 900.548 171.291 902.921 172.267C905.294 173.244 907.45 174.679 909.267 176.49C911.084 178.302 912.526 180.454 913.51 182.824C914.494 185.194 915 187.734 915 190.3V190.3Z" fill="#C8CAD7"/>
<path d="M216.27 185.43C218.965 185.43 221.15 183.245 221.15 180.55C221.15 177.855 218.965 175.67 216.27 175.67C213.575 175.67 211.39 177.855 211.39 180.55C211.39 183.245 213.575 185.43 216.27 185.43Z" fill="#FD3030"/>
<path d="M230.9 185.43C233.595 185.43 235.78 183.245 235.78 180.55C235.78 177.855 233.595 175.67 230.9 175.67C228.205 175.67 226.02 177.855 226.02 180.55C226.02 183.245 228.205 185.43 230.9 185.43Z" fill="#FFBF00"/>
<path d="M245.53 185.43C248.225 185.43 250.41 183.245 250.41 180.55C250.41 177.855 248.225 175.67 245.53 175.67C242.835 175.67 240.65 177.855 240.65 180.55C240.65 183.245 242.835 185.43 245.53 185.43Z" fill="#35C944"/>
<path d="M323.31 205.48H221.98V214.81H323.31V205.48Z" fill="#121212"/>
<path opacity="0.5" d="M323.31 250.98H221.98V260.31H323.31V250.98Z" fill="#2A8356"/>
<path opacity="0.5" d="M323.31 283.15H221.98V292.48H323.31V283.15Z" fill="#2A8356"/>
<path opacity="0.5" d="M323.31 315.32H221.98V324.65H323.31V315.32Z" fill="#2A8356"/>
<path opacity="0.5" d="M323.31 347.48H221.98V356.81H323.31V347.48Z" fill="#2A8356"/>
<path opacity="0.5" d="M323.31 379.65H221.98V388.98H323.31V379.65Z" fill="#2A8356"/>
<path opacity="0.5" d="M323.31 411.82H221.98V421.15H323.31V411.82Z" fill="#2A8356"/>
<path opacity="0.5" d="M323.31 443.98H221.98V453.31H323.31V443.98Z" fill="#2A8356"/>
<path opacity="0.5" d="M880.5 239.79H431.49V241.29H880.5V239.79Z" fill="#121212"/>
<path opacity="0.5" d="M880.5 274.62H431.49V276.12H880.5V274.62Z" fill="#121212"/>
<path opacity="0.5" d="M880.5 309.46H431.49V310.96H880.5V309.46Z" fill="#121212"/>
<path opacity="0.5" d="M880.5 344.29H431.49V345.79H880.5V344.29Z" fill="#121212"/>
<path opacity="0.5" d="M880.5 379.12H431.49V380.62H880.5V379.12Z" fill="#121212"/>
<path d="M509.3 338.23C468.82 338.23 431.4 313.47 430.94 313.15L432.05 311.49C432.63 311.88 490.21 349.98 539.14 330.89C557 323.94 569.68 313.11 582 302.65C594.83 291.72 606.95 281.39 623.46 276.91C642.46 271.78 663.11 276.43 678.84 289.35C692.28 300.4 719.06 318.15 747.35 312.84C761.77 310.14 773.93 299.6 786.8 288.45C811.44 267.05 837 244.96 881.09 276.68L879.92 278.3C837.07 247.51 812.16 269.09 788.08 289.96C775 301.3 762.64 311.96 747.69 314.81C718.59 320.26 691.25 302.17 677.54 290.9C662.31 278.38 642.28 273.9 623.96 278.85C607.87 283.21 595.96 293.39 583.27 304.17C570.86 314.74 558.02 325.68 539.87 332.76C530.109 336.47 519.742 338.325 509.3 338.23Z" fill="#2A8356"/>
<path d="M647.55 286.5C653.697 286.5 658.68 281.517 658.68 275.37C658.68 269.223 653.697 264.24 647.55 264.24C641.403 264.24 636.42 269.223 636.42 275.37C636.42 281.517 641.403 286.5 647.55 286.5Z" fill="#FFC107"/>
<path d="M368.62 517.24C353.41 508.48 347.62 506.31 347.62 506.3L347.31 506.08C345.649 504.806 344.329 503.139 343.47 501.23C343.47 500.88 343.47 500.53 343.47 500.23V500.33C343.72 495.69 347.01 491.48 350.14 487.8C352.807 484.66 355.473 481.523 358.14 478.39C359.059 477.438 359.762 476.299 360.2 475.05C360.363 474.396 360.437 473.724 360.42 473.05C360.42 472.77 360.42 472.5 360.42 472.23C360.42 469.89 360.31 467.55 360.23 465.23C360.15 463.18 359.63 460.61 357.58 460.23C356.52 460.01 355.12 460.39 354.58 459.48C354.384 459.108 354.334 458.677 354.44 458.27C354.44 458.27 354.44 458.33 354.44 458.36C354.436 458.323 354.436 458.287 354.44 458.25C354.834 456.672 355.089 455.063 355.2 453.44C355.236 452.617 355.124 451.794 354.87 451.01C353.68 447.62 349.61 446.23 346.01 445.59C342.41 444.95 338.37 444.4 336.11 441.59C335.49 440.653 334.823 439.748 334.11 438.88C333.063 437.957 331.79 437.329 330.42 437.06C325.954 435.954 321.246 436.365 317.04 438.23C315.3 439.01 313.55 440.05 311.64 439.94C309.73 439.83 307.96 438.44 306 438.11C302.84 437.57 299.81 439.9 298.25 442.65C297.325 444.282 296.833 446.124 296.82 448C296.82 448.1 296.82 448.21 296.82 448.31C296.781 450.327 297.518 452.282 298.88 453.77C300.24 455.19 302.27 456.16 302.88 458.02C303.11 458.78 303.06 459.6 303.26 460.36C303.26 460.46 303.32 460.55 303.35 460.65L303.24 460.78C299.992 464.961 298.232 470.106 298.24 475.4C298.271 480.54 299.935 485.538 302.99 489.672C306.046 493.805 310.335 496.862 315.24 498.4C315.24 498.63 315.24 498.87 315.24 499.12C315.308 500.621 315.048 502.119 314.478 503.509C313.908 504.899 313.042 506.149 311.94 507.17L290.36 515.83C290.36 515.83 277.36 514.29 272.68 533.28C271.93 536.431 271.66 539.678 271.88 542.91C272.05 545.78 271.65 550.82 268.32 557.34C262.99 567.78 264.2 591.73 275.1 594.1C285.39 596.34 289.42 595.41 289.84 595.3V595.72C289.67 600.22 288.04 638.98 282.11 643.72C280.46 645.01 280.77 645.89 282.11 646.48C282.11 646.48 282.11 646.73 282.11 647.18C281.93 650.02 281.01 660.81 277.04 666.96C272.48 674.05 273 715.05 273 715.05L269.86 739.24C269.86 739.24 271.79 754.18 269.86 756.79C268.13 759.12 265.86 814.4 265.34 826.38H265.14C264.191 826.437 263.269 826.726 262.457 827.221C261.645 827.716 260.966 828.402 260.48 829.22C257.9 833.36 249 840.99 249 840.99C247.07 843.74 239.91 846.37 236.13 847.61C235.624 847.772 235.135 847.983 234.67 848.24C233.255 849.011 232.118 850.207 231.42 851.66C231.174 852.088 231.017 852.561 230.959 853.05C230.901 853.54 230.942 854.037 231.08 854.51C232.08 856.88 252.15 858.51 257.23 856.17C261.23 854.31 277.07 851.85 283.65 850.89C284.844 850.74 285.954 850.196 286.805 849.345C287.656 848.494 288.2 847.384 288.35 846.19C288.413 845.778 288.392 845.358 288.289 844.954C288.186 844.55 288.003 844.171 287.75 843.84V843.84C286.49 842.28 285.84 838.02 285.55 835.24C286.084 835.021 286.583 834.725 287.03 834.36C286.49 825.741 287.726 817.102 290.66 808.98C295.5 796.18 296.96 772.46 295.75 757.04C295.75 757.04 310.52 693.47 322.15 687.54C322.33 687.76 327.97 695 328.69 717.42C329.41 740.19 337.64 755.13 337.64 755.13C337.64 755.13 334.01 793.79 337.64 808.26L332.87 831.05C332.671 830.887 332.481 830.713 332.3 830.53C332.3 830.53 332.44 831.17 332.64 832.18L332.54 832.66L332.74 832.71C333.28 835.56 334.08 840.53 333.74 843.45C333.55 845.12 333.09 847.39 332.74 849.63C332.24 853.14 332.1 856.55 333.95 857.29C336.95 858.51 354.78 860.18 357.81 856.29C358.489 855.493 358.931 854.521 359.087 853.486C359.242 852.45 359.105 851.392 358.69 850.43C358.47 849.893 358.174 849.392 357.81 848.94C357.81 848.94 353.08 841.21 354.42 835.76C354.543 835.229 354.555 834.678 354.457 834.141C354.359 833.605 354.153 833.094 353.85 832.64C354.544 824.012 355.931 815.455 358 807.05C361 795.64 367.42 770.62 362.72 754.16C362.54 753.52 362.34 752.88 362.12 752.26C359.405 743.277 358.497 733.846 359.45 724.51C357.701 716.542 357.701 708.288 359.45 700.32C362.33 687.05 364.36 674.05 364.36 674.05C364.36 674.05 365.96 656.5 364.56 645.74L364.47 645.05L365.23 644.88C365.23 644.88 361.12 626.62 359.66 615C359.32 612.25 358.87 608.78 358.38 605.07C359.721 604.84 361.041 604.505 362.33 604.07C375.41 599.56 379.52 558.76 379.52 558.76V545.82C379.52 545.82 383.88 526.05 368.62 517.24ZM271.19 832.24L270.55 831.9L271.19 832.24Z" fill="url(#paint0_linear)"/>
<path d="M360.73 752.65C366.4 768.96 359.73 795.43 356.73 807.25C354.71 815.797 353.372 824.491 352.73 833.25C345.829 834.415 338.77 834.252 331.93 832.77L336.93 808.43C333.39 794.01 336.93 755.48 336.93 755.48C336.93 755.48 328.93 740.58 328.19 717.89C327.49 695.56 321.99 688.34 321.81 688.11C310.38 694.05 296 757.38 296 757.38C297.18 772.74 295.76 796.38 291 809.15C288.131 817.256 286.924 825.857 287.45 834.44C285.8 835.83 283.5 836.07 281.02 835.67C274.27 834.58 266.18 828.76 266.18 828.76C266.18 828.76 268.78 759.76 270.67 757.14C272.56 754.52 270.67 739.65 270.67 739.65L273.74 715.54C273.74 715.54 273.27 674.65 277.74 667.54C281.62 661.41 282.51 650.65 282.69 647.83C282.69 647.38 282.69 647.13 282.69 647.13L289.53 638.94C289.53 638.94 355.72 633.94 360.68 638.94C361.9 640.16 362.68 642.94 363.1 646.42C364.46 657.14 362.9 674.63 362.9 674.63C362.9 674.63 360.9 687.63 358.08 700.86C356.373 708.806 356.373 717.024 358.08 724.97C357.156 734.281 358.056 743.683 360.73 752.65V752.65Z" fill="#65617D"/>
<path d="M356.59 856.3C353.64 860.2 336.27 858.55 333.31 857.3C331.5 856.55 331.64 853.16 332.13 849.66C332.44 847.43 332.89 845.16 333.07 843.51C333.55 839.25 331.66 830.62 331.66 830.62C331.66 830.62 335.56 834.76 336.5 830.62C336.717 829.83 337.146 829.115 337.74 828.551C338.334 827.987 339.07 827.596 339.87 827.42C341.896 826.807 344.075 826.942 346.01 827.8C349.08 829.13 354.2 831.97 353.28 835.8C351.98 841.23 356.59 848.93 356.59 848.93C356.948 849.382 357.237 849.884 357.45 850.42C357.865 851.384 358.004 852.444 357.852 853.482C357.7 854.52 357.263 855.495 356.59 856.3V856.3Z" fill="#A27772"/>
<path opacity="0.1" d="M356.59 856.3C353.64 860.2 336.27 858.55 333.31 857.3C331.5 856.55 331.64 853.16 332.13 849.66C333.99 850.53 337.13 851.26 342.45 850.77C343.686 850.65 344.929 850.61 346.17 850.65C349.931 850.826 353.699 850.753 357.45 850.43C357.863 851.392 358.001 852.45 357.849 853.486C357.697 854.523 357.261 855.496 356.59 856.3V856.3Z" fill="black"/>
<path opacity="0.1" d="M296 757.38C297.18 772.74 295.76 796.38 291 809.15C288.131 817.256 286.924 825.857 287.45 834.44C285.8 835.83 283.5 836.07 281.02 835.67C282.45 825.67 288.52 782.74 292.42 748.81C296.85 710.16 317.59 683.57 317.59 683.57L321.73 688.12C310.38 694.05 296 757.38 296 757.38Z" fill="black"/>
<path d="M349.5 508.95L346.61 523.13L332.48 546.89L315.05 539.44C315.05 539.44 291.35 514.62 306.24 511.08C308.025 510.699 309.711 509.949 311.19 508.88C314.11 506.67 315.03 503.47 315.05 500.33C314.932 496.812 314.109 493.354 312.63 490.16L343.12 480.59C341.859 484.595 341.123 488.746 340.93 492.94C340.7 501.24 343.78 505.34 346.31 507.29C347.252 508.051 348.336 508.615 349.5 508.95V508.95Z" fill="#FBBEBE"/>
<path opacity="0.1" d="M343.12 480.59C341.859 484.595 341.123 488.746 340.93 492.94C337.841 496.606 333.728 499.268 329.118 500.584C324.508 501.901 319.61 501.812 315.05 500.33C314.932 496.812 314.109 493.354 312.63 490.16L343.12 480.59Z" fill="black"/>
<path d="M346.61 476.69C346.61 481.459 345.196 486.12 342.547 490.085C339.898 494.05 336.132 497.14 331.727 498.965C327.321 500.79 322.473 501.267 317.796 500.337C313.12 499.406 308.824 497.11 305.452 493.738C302.08 490.367 299.784 486.071 298.853 481.394C297.923 476.717 298.4 471.869 300.225 467.464C302.05 463.058 305.14 459.293 309.105 456.643C313.07 453.994 317.732 452.58 322.5 452.58C325.668 452.572 328.807 453.19 331.736 454.399C334.665 455.608 337.326 457.384 339.566 459.624C341.806 461.864 343.582 464.525 344.791 467.454C346 470.383 346.618 473.522 346.61 476.69V476.69Z" fill="#FBBEBE"/>
<path opacity="0.1" d="M349.5 508.95L346.61 523.13L332.48 546.89L315.05 539.44C315.05 539.44 291.35 514.62 306.24 511.08C308.025 510.699 309.711 509.949 311.19 508.88C308.5 516.27 319.6 531.64 319.6 531.64C320.89 533.54 323.86 532.35 323.86 532.35C331 531.27 344.17 510.71 346.31 507.29C347.252 508.051 348.336 508.615 349.5 508.95V508.95Z" fill="black"/>
<path opacity="0.1" d="M363.15 646.44C358.95 647.44 335.73 652.53 326.93 651.25C317.24 649.83 298.39 648.89 298.39 648.89C298.39 648.89 286.39 649.53 282.71 647.89C282.71 647.44 282.71 647.19 282.71 647.19L289.55 639C289.55 639 355.74 634 360.7 639C362 640.18 362.7 642.95 363.15 646.44Z" fill="black"/>
<path d="M319.6 532.35C319.6 532.35 307.13 515.08 311.83 508.35L290.76 516.99C290.76 516.99 278.08 515.45 273.51 534.37C272.778 537.517 272.511 540.755 272.72 543.98C272.89 546.83 272.5 551.85 269.25 558.35C264.05 568.75 265.25 592.63 275.87 594.99C286.49 597.35 290.29 596.17 290.29 596.17C290.29 596.17 288.87 639.43 282.73 644.39C276.59 649.35 298.4 648.17 298.4 648.17C298.4 648.17 317.24 649.17 326.93 650.54C336.62 651.91 363.8 645.54 363.8 645.54C363.8 645.54 359.8 627.34 358.36 615.76C356.92 604.18 353.64 579.52 353.64 579.52L377.75 546.86C377.75 546.86 382 527.12 367.11 518.38C352.22 509.64 346.61 507.48 346.61 507.48C346.61 507.48 331.61 531.85 323.85 533.03C323.85 533.05 320.89 534.25 319.6 532.35Z" fill="#FFC003"/>
<path opacity="0.1" d="M291.94 539.21C291.94 539.21 291.71 547.01 293.13 550.08C294.55 553.15 299.74 570.17 299.74 570.17H287.93C287.93 570.17 294.31 563.32 293.84 560.01C293.37 556.7 291.94 539.21 291.94 539.21Z" fill="black"/>
<path d="M326.93 598.05C326.93 598.05 300.83 591.67 298.4 586.24C295.97 580.81 289.26 568.63 289.26 568.63L292.01 564.92L304.71 574.92C304.71 574.92 319.84 586.92 326.93 588.16C334.02 589.4 326.93 598.05 326.93 598.05Z" fill="#FBBEBE"/>
<path opacity="0.05" d="M326.93 598.05C326.93 598.05 300.83 591.67 298.4 586.24C295.97 580.81 289.26 568.63 289.26 568.63L292.01 564.92L304.71 574.92C304.71 574.92 319.84 586.92 326.93 588.16C334.02 589.4 326.93 598.05 326.93 598.05Z" fill="black"/>
<path d="M349.5 567.34V581.5H347.22C335.974 581.5 324.913 584.363 315.08 589.82L310.82 592.18L309.67 592.82L302.34 576.32L309.2 570.17H309.55C311.23 570.33 318.48 570.93 321.55 569.9C324.62 568.87 328.1 565.76 336.69 567.96C340.93 569.04 344.54 573.79 348.69 572.31L349.5 567.34Z" fill="#FBBEBE"/>
<path opacity="0.1" d="M372.31 541.57L377.04 546.89V559.77C377.04 559.77 373.04 600.43 360.26 604.92C347.48 609.41 324.71 602.32 324.71 602.32C324.71 602.32 318.82 586.72 321.57 585.77C324.32 584.82 345.91 579.13 345.91 579.13C345.91 579.13 345.6 555.28 350.33 548.19C350.33 548.19 347.26 525.97 357.89 525.5C368.52 525.03 372.31 541.57 372.31 541.57Z" fill="black"/>
<path d="M373 541.57L377.73 546.89V559.77C377.73 559.77 373.73 600.43 360.94 604.92C348.15 609.41 325.4 602.32 325.4 602.32C325.4 602.32 319.51 586.72 322.26 585.77C325.01 584.82 346.59 579.13 346.59 579.13C346.59 579.13 346.29 555.28 351.02 548.19C351.02 548.19 347.94 525.97 358.58 525.5C369.22 525.03 373 541.57 373 541.57Z" fill="#FFBF00"/>
<path opacity="0.1" d="M340 486.93C340.21 485.376 340.025 483.793 339.46 482.33C339.164 481.607 338.636 481.002 337.959 480.611C337.282 480.22 336.495 480.065 335.72 480.17C333.72 480.64 332.82 483.27 330.84 483.9C329.17 484.43 327.34 483.25 326.54 481.69C325.87 480.064 325.59 478.304 325.72 476.55C325.72 474.55 325.72 472.6 325.72 470.62C325.72 468.47 325.65 466.15 324.32 464.46C322.67 462.36 318.8 461.46 316.22 461.53C314.498 461.548 312.846 462.212 311.59 463.39C310.959 464.025 310.195 464.511 309.352 464.812C308.509 465.113 307.61 465.221 306.72 465.13C305.935 465.009 305.201 464.67 304.601 464.149C304.001 463.629 303.56 462.95 303.33 462.19C303.326 462.164 303.326 462.136 303.33 462.11C305.339 459.454 307.877 457.242 310.783 455.616C313.69 453.989 316.901 452.982 320.216 452.658C323.531 452.335 326.877 452.701 330.043 453.735C333.209 454.769 336.127 456.448 338.612 458.665C341.097 460.883 343.095 463.591 344.482 466.62C345.868 469.648 346.612 472.931 346.666 476.261C346.72 479.591 346.084 482.896 344.797 485.968C343.511 489.04 341.601 491.813 339.19 494.11C339.589 491.733 339.86 489.336 340 486.93Z" fill="black"/>
<path d="M306.71 464.42C305.925 464.298 305.19 463.957 304.588 463.438C303.987 462.918 303.544 462.239 303.31 461.48C303.12 460.72 303.17 459.9 302.94 459.15C302.39 457.29 300.41 456.32 299.08 454.91C296.42 452.09 296.59 447.44 298.47 444.04C300 441.3 302.95 438.99 306.04 439.52C307.95 439.86 309.6 441.22 311.54 441.34C313.48 441.46 315.11 440.42 316.81 439.64C320.906 437.784 325.511 437.375 329.87 438.48C331.212 438.747 332.456 439.372 333.47 440.29C334.158 441.155 334.799 442.056 335.39 442.99C337.59 445.8 341.54 446.35 345.05 446.99C348.56 447.63 352.54 448.99 353.69 452.4C354.46 454.64 353.69 457.07 353.28 459.4C353.127 459.878 353.159 460.395 353.37 460.85C353.92 461.76 355.29 461.38 356.37 461.59C358.37 462.01 358.87 464.59 358.94 466.59C359.033 468.91 359.097 471.243 359.13 473.59C359.189 474.458 359.122 475.331 358.93 476.18C358.499 477.392 357.817 478.499 356.93 479.43L349.12 488.81C345.66 492.97 341.99 497.81 342.68 503.18C341.04 503.91 339.1 502.5 338.56 500.78C338.02 499.06 338.45 497.22 338.82 495.46C339.449 492.416 339.86 489.332 340.05 486.23C340.261 484.672 340.075 483.087 339.51 481.62C339.212 480.896 338.682 480.291 338.004 479.9C337.325 479.509 336.536 479.355 335.76 479.46C333.76 479.93 332.87 482.56 330.89 483.19C329.22 483.73 327.39 482.54 326.59 480.98C325.925 479.353 325.644 477.594 325.77 475.84V469.91C325.77 467.76 325.7 465.44 324.37 463.75C322.73 461.65 318.85 460.75 316.27 460.82C314.548 460.838 312.896 461.502 311.64 462.68C311.003 463.323 310.228 463.814 309.374 464.115C308.521 464.416 307.61 464.521 306.71 464.42V464.42Z" fill="#7C5C5C"/>
<path opacity="0.1" d="M312.15 538.62L319.56 569.02C319.56 569.02 325.39 568.99 312.15 538.62Z" fill="black"/>
<path opacity="0.1" d="M337.45 533.53C337.45 533.53 327.75 549.41 331.54 565.82L333.34 565.95C333.34 565.95 330.12 558.35 337.45 533.53Z" fill="black"/>
<path opacity="0.1" d="M343.59 623.36C343.59 623.36 355.49 619.42 356.36 628.56C356.36 628.56 354.11 622.29 343.59 623.36Z" fill="black"/>
<path opacity="0.1" d="M309.2 570.88C309.2 570.88 306.84 587.43 311.09 594.05C304.422 596.399 297.344 597.362 290.29 596.88L288.87 570.88H309.2Z" fill="black"/>
<path opacity="0.1" d="M310.82 592.18L309.67 592.82L302.34 576.32L309.2 570.17H309.55C309.44 570.97 307.53 585.18 310.82 592.18Z" fill="black"/>
<path d="M309.2 570.17C309.2 570.17 306.84 586.72 311.09 593.34C304.422 595.689 297.344 596.652 290.29 596.17L282.02 570.17H309.2Z" fill="#FFC107"/>
<path d="M288.75 846.24C288.614 847.419 288.089 848.52 287.258 849.367C286.426 850.215 285.336 850.761 284.16 850.92C277.75 851.92 262.28 854.32 258.38 856.18C253.38 858.55 233.8 856.89 232.85 854.53C232.717 854.056 232.678 853.56 232.737 853.071C232.795 852.582 232.949 852.109 233.19 851.68C233.647 850.739 234.289 849.9 235.078 849.213C235.867 848.526 236.786 848.004 237.78 847.68C241.48 846.44 248.46 843.83 250.34 841.09C250.34 841.09 259.04 833.47 261.52 829.36C261.986 828.549 262.645 827.866 263.439 827.372C264.233 826.879 265.137 826.589 266.07 826.53C268.14 826.43 270.44 827.48 271.39 832.01C271.39 832.01 282.73 838.48 285.8 832.81C285.8 832.81 286.27 841.52 288.15 843.91C288.399 844.24 288.58 844.615 288.683 845.015C288.786 845.415 288.809 845.831 288.75 846.24Z" fill="#A27772"/>
<path opacity="0.1" d="M288.75 846.24C288.614 847.419 288.089 848.52 287.258 849.367C286.426 850.215 285.336 850.761 284.16 850.92C277.75 851.92 262.28 854.32 258.38 856.18C253.38 858.55 233.8 856.89 232.85 854.53C232.717 854.056 232.678 853.56 232.737 853.071C232.795 852.582 232.949 852.109 233.19 851.68C233.864 850.242 234.973 849.053 236.36 848.28C239.56 850.4 246.66 852.48 262.28 850.04C277.18 847.71 284.55 845.43 288.15 843.88C288.403 844.213 288.586 844.594 288.689 844.999C288.792 845.405 288.813 845.826 288.75 846.24V846.24Z" fill="black"/>
<g opacity="0.1">
<path opacity="0.1" d="M353.25 459.72C353.255 459.68 353.255 459.64 353.25 459.6C353.718 457.851 353.963 456.05 353.98 454.24C353.829 455.688 353.585 457.124 353.25 458.54C353.16 458.928 353.16 459.332 353.25 459.72V459.72Z" fill="black"/>
<path opacity="0.1" d="M339.46 481.84C339.831 482.693 340.028 483.61 340.04 484.54C340.148 483.258 339.949 481.97 339.46 480.78C339.162 480.055 338.633 479.449 337.954 479.057C337.276 478.664 336.487 478.507 335.71 478.61C333.71 479.08 332.82 481.72 330.84 482.35C329.17 482.88 327.34 481.69 326.54 480.13C325.866 478.505 325.585 476.744 325.72 474.99C325.72 472.99 325.72 471.04 325.72 469.07C325.72 466.92 325.65 464.6 324.32 462.91C322.67 460.8 318.8 459.91 316.21 459.97C314.489 459.989 312.84 460.657 311.59 461.84C310.959 462.473 310.193 462.957 309.351 463.256C308.508 463.556 307.609 463.663 306.72 463.57C305.933 463.454 305.195 463.115 304.592 462.594C303.99 462.074 303.549 461.392 303.32 460.63C303.12 459.87 303.18 459.06 302.95 458.3C302.4 456.44 300.42 455.48 299.09 454.07C297.849 452.695 297.14 450.922 297.09 449.07C296.995 450.163 297.123 451.264 297.467 452.306C297.811 453.347 298.363 454.308 299.09 455.13C300.42 456.54 302.4 457.51 302.95 459.37C303.18 460.12 303.12 460.94 303.32 461.7C303.553 462.46 303.996 463.139 304.597 463.659C305.199 464.179 305.934 464.519 306.72 464.64C307.61 464.731 308.509 464.623 309.352 464.322C310.195 464.021 310.959 463.535 311.59 462.9C312.845 461.735 314.488 461.076 316.2 461.05C318.79 460.97 322.66 461.89 324.31 463.99C325.64 465.68 325.7 467.99 325.71 470.15C325.71 472.15 325.71 474.1 325.71 476.07C325.574 477.827 325.855 479.592 326.53 481.22C327.33 482.78 329.16 483.96 330.83 483.43C332.83 482.8 333.68 480.17 335.7 479.69C336.476 479.587 337.264 479.741 337.943 480.13C338.623 480.518 339.156 481.119 339.46 481.84V481.84Z" fill="black"/>
<path opacity="0.1" d="M358.89 475.33C358.456 476.543 357.775 477.654 356.89 478.59C354.277 481.71 351.673 484.833 349.08 487.96C345.8 491.91 342.32 496.48 342.57 501.52C342.81 496.9 346.03 492.7 349.08 489.03L356.89 479.65C357.775 478.717 358.456 477.61 358.89 476.4C359.083 475.548 359.15 474.672 359.09 473.8C359.085 474.316 359.017 474.83 358.89 475.33V475.33Z" fill="black"/>
<path opacity="0.1" d="M338.51 499.94C338.381 499.527 338.301 499.101 338.27 498.67C338.204 499.455 338.286 500.245 338.51 501C339.04 502.72 340.99 504.13 342.63 503.4C342.63 503.05 342.56 502.7 342.55 502.4C340.93 503.05 339 501.62 338.51 499.94Z" fill="black"/>
</g>
<path opacity="0.1" d="M260 831.47C260 831.47 262.47 835.81 271.43 831.98Z" fill="black"/>
<path opacity="0.1" d="M335.65 832.51C335.65 832.51 343.38 841.6 353.11 835.51Z" fill="black"/>
<path opacity="0.1" d="M358.13 724.99C358.13 724.99 352.67 728.4 352.49 730.35C352.31 732.3 355.31 728.93 355.31 728.93L358.13 724.99Z" fill="black"/>
<path opacity="0.1" d="M360.28 751.13C358.385 752.712 356.026 753.632 353.56 753.75C349.48 753.93 349.82 759.25 352.49 757.65C355.16 756.05 360.28 751.13 360.28 751.13Z" fill="black"/>
<path opacity="0.1" d="M361.32 754.54C361.32 754.54 358.7 767.4 356.57 764.92Z" fill="black"/>
<g opacity="0.5">
<path opacity="0.5" d="M537.17 458.65H471.17V472.65H537.17V458.65Z" fill="#2A8356"/>
<path opacity="0.5" d="M688.72 458.65H622.72V472.65H688.72V458.65Z" fill="#2A8356"/>
<path opacity="0.5" d="M840.27 458.65H774.27V472.65H840.27V458.65Z" fill="#2A8356"/>
</g>
<path d="M466.5 556.42C466.5 535.98 483.13 520.28 503.58 520.28H503.87V510.98H503.58C478 510.98 457.2 530.85 457.2 556.42C457.199 563.035 458.617 569.573 461.358 575.594C464.1 581.614 468.1 586.977 473.09 591.32L479.68 584.73C475.552 581.257 472.234 576.924 469.957 572.034C467.68 567.143 466.5 561.814 466.5 556.42V556.42Z" fill="#FFC107"/>
<path opacity="0.5" d="M504.8 510.99V520.29C510.755 520.33 516.613 521.804 521.878 524.587C527.143 527.37 531.659 531.381 535.046 536.28C538.432 541.178 540.589 546.821 541.332 552.73C542.076 558.638 541.385 564.639 539.319 570.224C537.252 575.809 533.87 580.814 529.459 584.816C525.048 588.817 519.738 591.696 513.979 593.211C508.219 594.725 502.18 594.829 496.371 593.515C490.563 592.201 485.156 589.506 480.61 585.66L474 592.25C479.632 597.175 486.373 600.663 493.646 602.417C500.919 604.171 508.508 604.139 515.766 602.323C523.024 600.508 529.734 596.963 535.325 591.991C540.915 587.019 545.219 580.767 547.869 573.771C550.52 566.775 551.437 559.241 550.544 551.813C549.65 544.385 546.972 537.283 542.739 531.115C538.505 524.947 532.841 519.894 526.231 516.39C519.621 512.885 512.261 511.033 504.78 510.99H504.8Z" fill="#2A8356"/>
<path opacity="0.5" d="M808.8 519.81C829.24 519.81 844.94 536.44 844.94 556.89C844.94 556.98 844.94 557.08 844.94 557.18H854.24C854.24 557.08 854.24 556.98 854.24 556.89C854.24 531.32 834.37 510.51 808.8 510.51C802.185 510.508 795.646 511.925 789.625 514.667C783.604 517.408 778.242 521.409 773.9 526.4L780.49 532.99C783.963 528.862 788.296 525.544 793.186 523.267C798.077 520.99 803.406 519.81 808.8 519.81V519.81Z" fill="#FFC107"/>
<path opacity="0.5" d="M854.23 558.11H844.93C844.89 564.065 843.416 569.923 840.633 575.188C837.85 580.453 833.839 584.969 828.94 588.356C824.042 591.742 818.399 593.899 812.49 594.642C806.582 595.386 800.581 594.695 794.996 592.629C789.411 590.562 784.406 587.18 780.404 582.769C776.403 578.358 773.524 573.048 772.009 567.289C770.495 561.529 770.391 555.49 771.705 549.681C773.019 543.873 775.714 538.466 779.56 533.92L773 527.33C768.075 532.962 764.587 539.703 762.833 546.976C761.079 554.249 761.111 561.838 762.927 569.096C764.742 576.354 768.287 583.064 773.259 588.655C778.231 594.245 784.483 598.549 791.479 601.199C798.475 603.85 806.009 604.767 813.437 603.874C820.865 602.98 827.967 600.302 834.135 596.069C840.303 591.835 845.356 586.171 848.86 579.561C852.365 572.951 854.217 565.591 854.26 558.11H854.23Z" fill="#2A8356"/>
<path opacity="0.5" d="M674 513.71L672.15 522.97C685.76 528.46 694.46 541.8 694.46 557.35C694.462 564.032 692.658 570.591 689.238 576.332C685.818 582.073 680.91 586.783 675.033 589.963C669.156 593.144 662.529 594.676 655.852 594.399C649.176 594.122 642.698 592.045 637.105 588.389C631.512 584.732 627.011 579.632 624.079 573.627C621.147 567.622 619.893 560.937 620.448 554.278C621.004 547.618 623.35 541.233 627.237 535.798C631.124 530.362 636.408 526.079 642.53 523.4L638.41 515.05C630.81 518.471 624.273 523.878 619.486 530.701C614.7 537.525 611.842 545.512 611.212 553.823C610.583 562.133 612.206 570.46 615.909 577.927C619.613 585.393 625.262 591.723 632.26 596.25C639.258 600.777 647.347 603.333 655.675 603.651C664.004 603.968 672.264 602.034 679.586 598.053C686.908 594.071 693.021 588.19 697.283 581.027C701.544 573.864 703.795 565.685 703.8 557.35C703.8 537.28 691.92 520.16 674 513.71Z" fill="#2A8356"/>
<path d="M658.59 519.74C663.032 519.738 667.426 520.651 671.5 522.42L673.35 513.17C668.641 511.357 663.636 510.432 658.59 510.44C652.038 510.44 645.561 511.834 639.59 514.53L643.75 522.86C648.425 520.798 653.48 519.735 658.59 519.74V519.74Z" fill="#FFC107"/>
<path opacity="0.5" d="M880.51 380.61H430.94V312.11L472.17 332.43L514.84 338.21L552.28 326.92L597.45 291.89L620.17 278.77L636.78 275.57L652.67 276.42L678.81 289.33L714.33 311.96L742.21 315.55L764.32 307.93L811.17 269.55L835.09 261.02L860.12 264.89L880.51 276.66V380.61Z" fill="#2A8356"/>
<defs>
<linearGradient id="paint0_linear" x1="305.5" y1="858.74" x2="305.5" y2="436.42" gradientUnits="userSpaceOnUse">
<stop stop-color="#808080" stop-opacity="0.25"/>
<stop offset="0.54" stop-color="#808080" stop-opacity="0.12"/>
<stop offset="1" stop-color="#808080" stop-opacity="0.1"/>
</linearGradient>
</defs>
</svg>
